<svg viewBox="0 0 96 96" xmlns="http://www.w3.org/2000/svg">
    <g transform="matrix(0.099257, 0, 0, 0.099257, -927.595438, -494.593129)" style="transform-origin: 974.627px 540.564px;">
        <g transform="matrix(1,0,0,1,959.9999389648438,540)" opacity="1" style="display: block;">
            <g opacity="1" transform="matrix(1,0,0,1,0,0)">
                <path stroke-linecap="round" stroke-linejoin="round" fill-opacity="0" stroke="rgb(29,29,27)" stroke-opacity="1" stroke-width="25" d=" M318.3919982910156,58.54199981689453 C318.3919982910156,58.54199981689453 298.1409912109375,58.54199981689453 298.1409912109375,58.54199981689453 C246.61199951171875,58.54199981689453 160.4969940185547,-10.92300033569336 160.4969940185547,-10.92300033569336"></path>
            </g>
        </g>
        <g transform="matrix(1,0,0,1,960,540)" opacity="1" style="display: block;">
            <g opacity="1" transform="matrix(1,0,0,1,0,0)">
                <path stroke-linecap="round" stroke-linejoin="round" fill-opacity="0" stroke="rgb(29,29,27)" stroke-opacity="1" stroke-width="25" d=" M-181.91400146484375,290.375 C-181.91400146484375,290.375 -252.84300231933594,314.67498779296875 -289.1369934082031,261.052001953125 C-268.5880126953125,226.802001953125 -187.8820037841797,78.79299926757812 -187.8820037841797,78.79299926757812 C-187.8820037841797,78.79299926757812 -5.623000144958496,-42.71200180053711 -5.623000144958496,-42.71200180053711 C-5.623000144958496,-42.71200180053711 61.93600082397461,-35.75199890136719 61.93600082397461,-35.75199890136719"></path>
            </g>
        </g>
        <g transform="matrix(1,0,0,1,960,540)" opacity="1" style="display: block;">
            <g opacity="1" transform="matrix(1,0,0,1,0,0)">
                <path stroke-linecap="round" stroke-linejoin="round" fill-opacity="0" stroke="rgb(29,29,27)" stroke-opacity="1" stroke-width="25" d=" M-265.1860046386719,408.35699462890625 C-265.1860046386719,408.35699462890625 -154.9739990234375,354.7130126953125 -154.9739990234375,354.7130126953125 C-154.9739990234375,354.7130126953125 -110.59400177001953,321.80499267578125 -110.59400177001953,321.80499267578125"></path>
            </g>
        </g>
        <g transform="matrix(1,0,0,1,960,540)" opacity="1" style="display: block;">
            <g opacity="1" transform="matrix(1,0,0,1,0,0)">
                <path stroke-linecap="round" stroke-linejoin="round" fill-opacity="0" stroke="rgb(29,29,27)" stroke-opacity="1" stroke-width="25" d=" M-25.874000549316406,200.2989959716797 C-25.874000549316406,200.2989959716797 272.8269958496094,-143.9669952392578 272.8269958496094,-143.9669952392578 C287.8819885253906,-161.0279998779297 287.07598876953125,-186.85499572753906 270.98699951171875,-202.94400024414062 C270.98699951171875,-202.94400024414062 270.98699951171875,-202.94400024414062 270.98699951171875,-202.94400024414062 C253.52499389648438,-220.4040069580078 224.98899841308594,-219.6479949951172 208.4759979248047,-201.28399658203125 C208.4759979248047,-201.28399658203125 -155.6320037841797,209.05999755859375 -155.6320037841797,209.05999755859375"></path>
            </g>
        </g>
        <g transform="matrix(1,0,0,1,960,540)" opacity="1" style="display: block;">
            <g opacity="1" transform="matrix(1,0,0,1,0,0)">
                <path stroke-linecap="round" stroke-linejoin="round" fill-opacity="0" stroke="rgb(29,29,27)" stroke-opacity="1" stroke-width="25" d=" M95.63200378417969,99.04399871826172 C95.63200378417969,99.04399871826172 95.63200378417969,139.54600524902344 95.63200378417969,139.54600524902344 C95.63200378417969,170.51600646972656 65.8489990234375,200.2989959716797 34.87900161743164,200.2989959716797 C34.87900161743164,200.2989959716797 -127.12899780273438,200.2989959716797 -127.12899780273438,200.2989959716797 C-153.61099243164062,200.2989959716797 -187.8820037841797,226.802001953125 -187.8820037841797,261.052001953125 C-187.8820037841797,295.302001953125 -167.63099670410156,321.80499267578125 -127.12899780273438,321.80499267578125 C-127.12899780273438,321.80499267578125 -46.125,321.80499267578125 -46.125,321.80499267578125 C-46.125,321.80499267578125 14.628000259399414,321.80499267578125 14.628000259399414,321.80499267578125 C50.19900131225586,353.1940002441406 71.41699981689453,362.3070068359375 115.88200378417969,362.3070068359375 C115.88200378417969,362.3070068359375 176.63499450683594,362.3070068359375 176.63499450683594,362.3070068359375 C195.55499267578125,362.3070068359375 222.33999633789062,353.0849914550781 240.5290069580078,347.87799072265625 C240.5290069580078,347.87799072265625 240.5290069580078,347.87799072265625 240.5290069580078,347.87799072265625 C258.7179870605469,342.6709899902344 279.22100830078125,342.0559997558594 298.1409912109375,342.0559997558594 C298.1409912109375,342.0559997558594 318.3919982910156,342.0559997558594 318.3919982910156,342.0559997558594"></path>
            </g>
        </g>
        <g transform="matrix(1,0,0,1,960,540)" opacity="1" style="display: block;">
            <g opacity="1" transform="matrix(1,0,0,1,0,0)">
                <path stroke-linecap="round" stroke-linejoin="round" fill-opacity="0" stroke="rgb(29,29,27)" stroke-opacity="1" stroke-width="25" d=" M-230.40699768066406,295.86700439453125 C-230.40699768066406,295.86700439453125 -244.83799743652344,312.31298828125 -244.83799743652344,312.31298828125 C-244.83799743652344,312.31298828125 -265.1860046386719,408.35699462890625 -265.1860046386719,408.35699462890625"></path>
            </g>
        </g>
        <g transform="matrix(1,0,0,1,960,540)" opacity="1" style="display: block;">
            <g opacity="1" transform="matrix(1,0,0,1,0,0)">
                <path stroke-linecap="round" stroke-linejoin="round" fill-opacity="0" stroke="rgb(29,29,27)" stroke-opacity="1" stroke-width="25" d=" M318.3919982910156,362.3070068359375 C318.3919982910156,362.3070068359375 460.14898681640625,362.3070068359375 460.14898681640625,362.3070068359375 C460.14898681640625,362.3070068359375 460.14898681640625,18.040000915527344 460.14898681640625,18.040000915527344 C460.14898681640625,18.040000915527344 318.3919982910156,18.040000915527344 318.3919982910156,18.040000915527344 C318.3919982910156,18.040000915527344 318.3919982910156,362.3070068359375 318.3919982910156,362.3070068359375z"></path>
            </g>
        </g>
        <g transform="matrix(1,0,0,1,960,540)" opacity="1" style="display: block;">
            <g opacity="1" transform="matrix(1,0,0,1,0,0)">
                <path stroke-linecap="butt" stroke-linejoin="round" fill-opacity="0" stroke="rgb(29,29,27)" stroke-opacity="1" stroke-width="25" d=" M379.1449890136719,261.052001953125 C379.1449890136719,261.052001953125 379.1449890136719,301.5539855957031 379.1449890136719,301.5539855957031"></path>
            </g>
        </g>
        <g transform="matrix(1,0,0,1,960,540)" opacity="1" style="display: block;">
            <path stroke-linecap="butt" stroke-linejoin="round" fill-opacity="0" stroke="rgb(29,29,27)" stroke-opacity="1" stroke-width="25" d=" M-289.1369934082031,-265.4729919433594 C-289.1369934082031,-265.4729919433594 -255.38499450683594,-197.9709930419922 -255.38499450683594,-197.9709930419922 C-255.38499450683594,-197.9709930419922 -187.8820037841797,-164.21800231933594 -187.8820037841797,-164.21800231933594 C-187.8820037841797,-164.21800231933594 -255.38499450683594,-130.46600341796875 -255.38499450683594,-130.46600341796875 C-255.38499450683594,-130.46600341796875 -289.1369934082031,-62.9630012512207 -289.1369934082031,-62.9630012512207 C-289.1369934082031,-62.9630012512207 -322.8890075683594,-130.46600341796875 -322.8890075683594,-130.46600341796875 C-322.8890075683594,-130.46600341796875 -390.3919982910156,-164.21800231933594 -390.3919982910156,-164.21800231933594 C-390.3919982910156,-164.21800231933594 -322.8890075683594,-197.9709930419922 -322.8890075683594,-197.9709930419922 C-322.8890075683594,-197.9709930419922 -289.1369934082031,-265.4729919433594 -289.1369934082031,-265.4729919433594z"></path>
            <g opacity="1" transform="matrix(1,0,0,1,0,0)"></g>
        </g>
        <g transform="matrix(1,0,0,1,960,540)" opacity="1" style="display: block;">
            <path stroke-linecap="butt" stroke-linejoin="round" fill-opacity="0" stroke="rgb(29,29,27)" stroke-opacity="1" stroke-width="25" d=" M-25.874000549316406,-407.2300109863281 C-25.874000549316406,-407.2300109863281 14.628000259399414,-326.22601318359375 14.628000259399414,-326.22601318359375 C14.628000259399414,-326.22601318359375 95.63200378417969,-285.7239990234375 95.63200378417969,-285.7239990234375 C95.63200378417969,-285.7239990234375 14.628000259399414,-245.2220001220703 14.628000259399414,-245.2220001220703 C14.628000259399414,-245.2220001220703 -25.874000549316406,-164.21800231933594 -25.874000549316406,-164.21800231933594 C-25.874000549316406,-164.21800231933594 -66.3759994506836,-245.2220001220703 -66.3759994506836,-245.2220001220703 C-66.3759994506836,-245.2220001220703 -147.3800048828125,-285.7239990234375 -147.3800048828125,-285.7239990234375 C-147.3800048828125,-285.7239990234375 -66.3759994506836,-326.22601318359375 -66.3759994506836,-326.22601318359375 C-66.3759994506836,-326.22601318359375 -25.874000549316406,-407.2300109863281 -25.874000549316406,-407.2300109863281z"></path>
            <g opacity="1" transform="matrix(1,0,0,1,0,0)"></g>
        </g>
        <g transform="matrix(1,0,0,1,960,540)" opacity="1" style="display: block;">
            <g opacity="1" transform="matrix(1,0,0,1,0,0)">
                <path stroke-linecap="butt" stroke-linejoin="round" fill-opacity="0" stroke="rgb(29,29,27)" stroke-opacity="1" stroke-width="25" d=" M-370.1409912109375,18.040000915527344 C-370.1409912109375,18.040000915527344 -370.1409912109375,139.54600524902344 -370.1409912109375,139.54600524902344"></path>
            </g>
        </g>
        <g transform="matrix(1,0,0,1,960,540)" opacity="1" style="display: block;">
            <g opacity="1" transform="matrix(1,0,0,1,0,0)">
                <path stroke-linecap="butt" stroke-linejoin="round" fill-opacity="0" stroke="rgb(29,29,27)" stroke-opacity="1" stroke-width="25" d=" M-309.38800048828125,78.79299926757812 C-309.38800048828125,78.79299926757812 -430.8940124511719,78.79299926757812 -430.8940124511719,78.79299926757812"></path>
            </g>
        </g>
    </g>
</svg>